<svg viewBox="0 0 80 14" version="1.1" xmlns="http://www.w3.org/2000/svg" xmlns:xlink="http://www.w3.org/1999/xlink">
    <g fill="currentColor">
        <path d="M7.29697642,13.9805825 C2.94768377,13.9805825 0,11.0508738 0,7.10213592 C0,3.1349792 2.94768377,0.205492372 7.29697642,0.205492372 C8.84371706,0.205492372 10.2630791,0.660194175 11.4640777,1.37009709 L10.5178363,3.99023578 C9.53520111,3.44432732 8.42518724,3.09880721 7.33337032,3.09880721 C4.84038835,3.09880721 3.29364771,4.62712899 3.29364771,7.10213592 C3.29364771,9.57669903 4.84038835,11.1054646 7.33337032,11.1054646 C8.42518724,11.1054646 9.66257975,10.7413037 10.6634119,10.1226075 L11.5916782,12.74319 C10.4270735,13.5074619 8.82552011,13.9805825 7.29697642,13.9805825"></path>
        <polyline points="18.3607212 13.7619972 18.3607212 0.423633842 21.4542025 0.423633842 21.4542025 10.9414702 26.8041054 10.9414702 26.8041054 13.7619972 18.3607212 13.7619972"></polyline>
        <path d="M38.1405825,5.77353675 L36.8124272,8.97619972 L39.4509847,8.97619972 L38.1405825,5.77353675 Z M41.4342302,13.7619972 L40.4333981,11.3418031 L35.82957,11.3418031 L34.8289598,13.7619972 L31.6808877,13.7619972 L37.958835,0.31445215 L38.3773648,0.31445215 L44.6553121,13.7619972 L41.4342302,13.7619972 Z"></path>
        <path d="M54.9725381,3.09880721 C54.4994175,3.09880721 54.2084882,3.11700416 53.7715395,3.18957004 L53.7715395,6.86535368 C54.1720943,6.90174757 54.3902358,6.91994452 54.7543967,6.91994452 C56.2281276,6.91994452 57.1745908,6.21026352 57.1745908,4.86391123 C57.1745908,3.75367545 56.3009154,3.09880721 54.9725381,3.09880721 Z M57.7204993,13.7619972 L55.4458807,9.4131484 C55.2636893,9.43134535 55.0999168,9.43134535 54.9179473,9.43134535 C54.4630236,9.43134535 54.2084882,9.4131484 53.7715395,9.39495146 L53.7715395,13.7619972 L50.6780583,13.7619972 L50.6780583,0.551012483 C51.8062691,0.423633842 53.0438835,0.332649098 54.6085992,0.332649098 C58.7577254,0.332649098 60.3952288,2.3161165 60.3952288,4.75472954 C60.3952288,6.33764216 59.5399723,7.75722607 58.1024133,8.61226075 L61.2325104,13.7619972 L57.7204993,13.7619972 Z"></path>
        <polyline points="75.589681 13.7619972 70.6947018 7.52044383 70.6947018 13.7619972 67.6009986 13.7619972 67.6009986 0.423633842 70.6947018 0.423633842 70.6947018 6.22846047 75.3713176 0.423633842 79.0289043 0.423633842 73.5516227 6.77436893 79.3200555 13.7619972 75.589681 13.7619972"></polyline>
    </g>
</svg>